<svg xmlns="http://www.w3.org/2000/svg" xmlns:xlink="http://www.w3.org/1999/xlink" width="374.929" height="75.591" viewBox="0 0 99.2 20"><defs><linearGradient id="A" xlink:href="#O"><stop offset="0" stop-color="#f0fff0"/><stop offset="1" stop-color="#f0fff0" stop-opacity="0"/></linearGradient><linearGradient id="B" xlink:href="#O"><stop offset="0" stop-color="#708090"/><stop offset="1" stop-color="#f0fff0"/></linearGradient><linearGradient id="C" x1="92.53" y1="292.577" x2="88.711" y2="287.929" xlink:href="#O"><stop offset="0" stop-color="#00008b"/><stop offset="1" stop-color="#00008b" stop-opacity="0"/></linearGradient><linearGradient id="D" x1="94.077" y1="124.922" x2="93.947" y2="117.438" xlink:href="#O"><stop offset="0" stop-color="#8b0000"/><stop offset="1" stop-color="red"/></linearGradient><linearGradient xlink:href="#B" id="E" x1="90.274" y1="133.483" x2="89.868" y2="129.695"/><linearGradient xlink:href="#B" id="F" x1="98.113" y1="133.421" x2="98.48" y2="129.679"/><linearGradient xlink:href="#A" id="G" x1="87.479" y1="120.001" x2="105.084" y2="119.041"/><linearGradient xlink:href="#A" id="H" x1="99.373" y1="119.593" x2="82.771" y2="113.395"/><linearGradient id="I" x1="21.826" y1="287.483" x2="87.31" y2="287.483" xlink:href="#O"><stop offset="0"/><stop offset="1" stop-opacity="0"/></linearGradient><linearGradient id="J" x1="97.208" y1="296.453" x2="90.049" y2="288.64" xlink:href="#O"><stop offset="0" stop-color="#00008b"/><stop offset="1" stop-color="snow"/></linearGradient><path id="K" d="M88.297 128.77l2.48-.42v-5.38c.885-5.88 6.336-3.804 6.595-.234.317 3.424.047 5.426.047 5.426l2.292.514s.715-4.73.374-6.782c-.624-5.425-6.272-8.62-9.682-4.77-3.204 3.432-2.288 7.1-2.105 11.646z"/><path id="L" d="M88.32 128.896l.695 4.514c.035.225 1.996.05 1.984-.198l-.215-4.696z"/><path id="M" d="M99.69 128.784l-.628 4.597c-.075.288-2 .274-1.984-.198l.314-4.845z"/><path id="N" d="M94.176 116.32c4.907-.12 5.81 6.926 5.81 6.926s-.57-7.328-5.887-7.287-5.755 6.626-5.755 6.626l.02.004s.907-6.15 5.813-6.268z"/><linearGradient id="O" gradientUnits="userSpaceOnUse"/></defs><g transform="translate(0 -277)"><path d="M24.444 296.354c-.442-.14-1.146-.6-1.565-1.047-1.022-1.066-1.23-3.17-.436-4.432.847-1.348 1.947-1.79 4.458-1.795l2.183-.004-.008-.926c-.017-1.86-1.142-2.518-3.89-2.27l-1.96.177.084-.862c.075-.77.198-.887 1.142-1.09 1.48-.32 4.235-.07 5.04.457.37.243.906.822 1.2 1.287.46.754.516 1.353.517 5.526l-.24 4.83c-.455.28-5.712.4-6.516.15zm4.64-3.574v-1.984H27.22c-1.626 0-1.947.083-2.514.65-.698.698-.818 1.45-.368 2.293.393.735 1.173 1 3.092 1.01l1.654.017zm11.774 2.207l-.154-16.292.838-.168 1.065-.167c.125 0 .26 3.538.298 7.86l.07 7.86c.387.644 1.1.568 1.655.838.037.013-.428 1.148-.52 1.608-2.284.207-3.252-1.542-3.252-1.542zm23.01 1.367c-.442-.14-1.146-.6-1.565-1.047-1.022-1.066-1.23-3.17-.436-4.432.847-1.348 1.947-1.79 4.458-1.795l2.183-.004-.008-.926c-.017-1.86-1.142-2.518-3.89-2.27l-1.96.177.084-.862c.075-.77.198-.887 1.142-1.09 1.48-.32 4.235-.07 5.04.457.37.243.906.822 1.2 1.287.46.754.516 1.353.517 5.526l-.24 4.83c-.455.28-5.712.4-6.516.15zm4.64-3.574v-1.984h-1.864c-1.626 0-1.947.083-2.514.65-.698.698-.818 1.45-.368 2.293.393.735 1.173 1 3.092 1.01l1.654.017zm13.76-1.816l.001.087c.015 2.34.105 2.523.647 3.064.697.697 1.722.832 2.918.387l.03-.012 1.3 1.308a.34.34 0 0 1-.075.146c-.118.137-.368.23-.825.367-1.466.44-3.196.375-4.264-.158-1.72-.86-1.85-1.48-1.852-8.83v-6.515l.827-.165 1.058-.165c.127 0 .232.833.232 1.852v1.852h2.25l2.35-.017-1.892 1.87h-2.706v2.65l-.992 1.142c.122.2.906 1.017.994 1.14m-47.363-.697v-6.085h2.117v12.17h-2.117zm13.163 5.91l-.728-.125v-15.807l1.198-.18c.66-.1 2.296-.13 3.638-.066 4.34.202 6.148 1.55 5.935 4.424-.092 1.242-.233 1.55-1.06 2.306l-.953.873 1.035.582c1.82 1.023 2.385 3.432 1.302 5.555-.43.843-.865 1.217-2.05 1.76-1.3.602-1.897.698-4.547.747-1.673.03-3.37-.001-3.77-.07zm5.854-1.96c1.846-.396 2.68-1.234 2.67-2.682-.016-2.097-1.313-2.857-4.878-2.857h-2.257v5.82h1.574c.866 0 2.167-.127 2.89-.282zm1.006-8.078c.777-.578 1.045-1.523.758-2.67-.248-.987-1.984-1.658-4.31-1.665l-1.918-.006v5.08l2.362-.093c1.9-.074 2.51-.203 3.11-.648zm19.4 4.127v-6.085h2.117v12.17h-2.117zm-39.1-8.614c-.99-.694-.53-2.5.64-2.5 1.295 0 1.927 1.57 1.003 2.495-.383.313-.9.524-1.642.004zm39.423 0c-.99-.694-.53-2.5.64-2.5 1.295 0 1.96 1.605 1.003 2.495 0 0-.642.594-1.642.004z" stroke="url(#I)" stroke-width=".265"/><g transform="matrix(1.170328 0 0 1.170328 -14.067061 -49.710833)"><path d="M88.385 294.673l7.577-7.81-4.116-4.116-7.764 7.764z" fill="url(#J)" fill-rule="evenodd"/><path d="M85.64 292.895l-2.502-2.528 4.19-4.206 4.52-4.188c.767.443 4.236 4.374 4.946 4.86l-8.478 8.59c-.084.05-1.303-1.138-2.68-2.528zm6.625-2.25l3.634-3.937-4.167-4.104-7.755 7.755 2.08 2.11c1.144 1.16 2.19 2.11 2.327 2.11s1.883-1.77 3.88-3.937zm-3.894-.823l2.307-.517.517-2.307.555-3.62-.272 3.838-.3 2.6s-1.2.17-2.6.3l-4.138.235z" fill="#181787"/><path d="M85.064 289.996l5.613-.655 1.123-5.05z" fill="url(#C)" fill-rule="evenodd"/></g><g transform="matrix(-.974725 .012795 .006799 .971485 97.843783 164.88242)" fill-rule="evenodd"><g stroke="#000" stroke-width=".265"><use xlink:href="#K" fill="url(#D)"/><use xlink:href="#L" fill="url(#E)"/><use xlink:href="#M" fill="url(#F)"/></g><use xlink:href="#N" fill="url(#G)"/></g><g transform="matrix(.974725 -.012795 .006799 .971485 -78.108585 167.32189)" fill-rule="evenodd"><g stroke="#000" stroke-width=".265"><use xlink:href="#K" fill="url(#D)"/><use xlink:href="#L" fill="url(#E)"/><use xlink:href="#M" fill="url(#F)"/></g><use xlink:href="#N" fill="url(#H)"/></g></g></svg>