<?xml version="1.0" encoding="UTF-8"?>
<svg width="99.2mm" height="20mm" version="1.1" viewBox="0 0 99.199997 20" xmlns="http://www.w3.org/2000/svg" xmlns:cc="http://creativecommons.org/ns#" xmlns:dc="http://purl.org/dc/elements/1.1/" xmlns:rdf="http://www.w3.org/1999/02/22-rdf-syntax-ns#" xmlns:xlink="http://www.w3.org/1999/xlink">
<defs>
<linearGradient id="d">
<stop stop-color="#f0fff0" offset="0"/>
<stop stop-color="#f0fff0" stop-opacity="0" offset="1"/>
</linearGradient>
<linearGradient id="e">
<stop stop-color="#708090" offset="0"/>
<stop stop-color="#f0fff0" offset="1"/>
</linearGradient>
<linearGradient id="f">
<stop stop-color="#8b0000" offset="0"/>
<stop stop-color="#f00" offset="1"/>
</linearGradient>
<linearGradient id="g" x1="93.059" x2="89.24" y1="155.52" y2="150.88" gradientTransform="translate(-.52917 137.05)" gradientUnits="userSpaceOnUse">
<stop stop-color="#00008b" offset="0"/>
<stop stop-color="#00008b" stop-opacity="0" offset="1"/>
</linearGradient>
<linearGradient id="c" x1="94.077" x2="93.947" y1="124.92" y2="117.44" gradientUnits="userSpaceOnUse" xlink:href="#f"/>
<linearGradient id="b" x1="90.274" x2="89.868" y1="133.48" y2="129.69" gradientUnits="userSpaceOnUse" xlink:href="#e"/>
<linearGradient id="a" x1="98.113" x2="98.48" y1="133.42" y2="129.68" gradientUnits="userSpaceOnUse" xlink:href="#e"/>
<linearGradient id="k" x1="58.667" x2="76.272" y1="120.19" y2="119.23" gradientTransform="translate(28.812 -.18709)" gradientUnits="userSpaceOnUse" xlink:href="#d"/>
<linearGradient id="j" x1="70.561" x2="53.96" y1="119.78" y2="113.58" gradientTransform="translate(28.812 -.18709)" gradientUnits="userSpaceOnUse" xlink:href="#d"/>
<linearGradient id="i" x1="22.355" x2="87.839" y1="150.43" y2="150.43" gradientTransform="translate(-.52917 137.05)" gradientUnits="userSpaceOnUse">
<stop offset="0"/>
<stop stop-opacity="0" offset="1"/>
</linearGradient>
<linearGradient id="h" x1="97.644" x2="90.484" y1="159.21" y2="151.4" gradientTransform="translate(-.43562 137.24)" gradientUnits="userSpaceOnUse">
<stop stop-color="#00008b" offset="0"/>
<stop stop-color="#fffafa" offset="1"/>
</linearGradient>
</defs>
<metadata>
<rdf:RDF>
<cc:Work rdf:about="">
<dc:format>image/svg+xml</dc:format>
<dc:type rdf:resource="http://purl.org/dc/dcmitype/StillImage"/>
<dc:title/>
</cc:Work>
</rdf:RDF>
</metadata>
<g transform="translate(0,-277)">
<path d="m24.444 296.35c-0.44203-0.13877-1.1464-0.61001-1.5652-1.0472-1.0218-1.0665-1.2285-3.1698-0.43562-4.4318 0.84685-1.3479 1.947-1.7908 4.4582-1.7951l2.1828-4e-3 -0.0084-0.92604c-0.01691-1.8614-1.1421-2.5178-3.8892-2.2689l-1.9586 0.17749 0.08385-0.86221c0.07482-0.76932 0.19786-0.88689 1.1422-1.0914 1.4788-0.3203 4.2347-0.0704 5.0396 0.45704 0.37079 0.24295 0.90615 0.82221 1.1897 1.2872 0.4596 0.75376 0.51565 1.3535 0.51654 5.5263 5.56e-4 2.5744-0.10749 4.7478-0.24008 4.8297-0.45478 0.28107-5.7118 0.40093-6.5157 0.14855zm4.6401-3.5736v-1.9844h-1.8641c-1.6264 0-1.9469 0.0828-2.5135 0.64943-0.6976 0.69761-0.81835 1.451-0.36755 2.2933 0.39344 0.73516 1.1735 0.9898 3.0916 1.0092l1.6536 0.0168zm11.774 2.2071-0.07683-8.1459-0.07683-8.1459 0.83751-0.16751c0.46063-0.0921 0.93991-0.1675 1.0651-0.1675 0.12517 0 0.25911 3.5376 0.29766 7.8613l0.07008 7.8613c0.38699 0.64376 1.0993 0.56802 1.6555 0.8377 0.03739 0.0131-0.42815 1.1484-0.52017 1.6082-2.2839 0.20666-3.252-1.5417-3.252-1.5417zm23.009 1.3666c-0.44203-0.13877-1.1464-0.61001-1.5652-1.0472-1.0218-1.0665-1.2285-3.1698-0.43562-4.4318 0.84685-1.3479 1.947-1.7908 4.4582-1.7951l2.1828-4e-3 -8e-3 -0.92604c-0.0169-1.8614-1.1421-2.5178-3.8892-2.2689l-1.9586 0.17749 0.08385-0.86221c0.07482-0.76932 0.19786-0.88689 1.1422-1.0914 1.4788-0.3203 4.2347-0.0704 5.0396 0.45704 0.37079 0.24295 0.90616 0.82221 1.1897 1.2872 0.4596 0.75376 0.51565 1.3535 0.51653 5.5263 5.3e-4 2.5744-0.10749 4.7478-0.24007 4.8297-0.45479 0.28107-5.7118 0.40093-6.5158 0.14855zm4.6401-3.5736v-1.9844h-1.8641c-1.6264 0-1.9469 0.0828-2.5136 0.64943-0.6976 0.69761-0.81835 1.451-0.36755 2.2933 0.39344 0.73516 1.1735 0.9898 3.0916 1.0092l1.6536 0.0168zm13.761-1.8163c1.58e-4 0.0293 3.27e-4 0.0582 5.07e-4 0.0868 0.01475 2.3408 0.1055 2.5232 0.64666 3.0644 0.69673 0.69673 1.722 0.8323 2.9176 0.38658 0.01023-4e-3 0.02048-8e-3 0.03073-0.0116 1.1135 1.1209 0.15737 0.155 1.3014 1.3078-0.01314 0.055-0.03729 0.1029-0.07487 0.14644-0.118 0.13669-0.36832 0.23049-0.82519 0.36737-1.4657 0.43913-3.1962 0.3748-4.2637-0.15849-1.7213-0.85988-1.8512-1.4794-1.8517-8.8301l-4.1e-4 -6.5154 0.82682-0.16537c0.45476-0.0909 0.93101-0.16536 1.0583-0.16536s0.23151 0.83344 0.23151 1.8521v1.8521h2.249l2.3492-0.0167c-1.0947 1.0636-0.88993 0.86684-1.8918 1.8688h-2.7064v2.6486l-0.99219 1.142c0.12221 0.19947 0.90572 1.0173 0.99445 1.14m-47.363-0.6972v-6.0854h2.1167v12.171h-2.1167zm13.163 5.9111-0.7276-0.12538v-15.807l1.1985-0.17972c0.65915-0.0988 2.2963-0.12859 3.638-0.0661 4.3408 0.20216 6.1479 1.5493 5.9346 4.4242-0.09211 1.2419-0.23314 1.5489-1.0592 2.306l-0.95294 0.87331 1.0349 0.58164c1.8204 1.0231 2.385 3.4319 1.3019 5.5549-0.43013 0.84313-0.86506 1.2167-2.0505 1.7613-1.3103 0.60198-1.8975 0.69842-4.5473 0.74696-1.6735 0.0307-3.3701-6.9e-4 -3.7703-0.0696zm5.8545-1.9601c1.846-0.3959 2.6806-1.2342 2.6699-2.6816-0.01552-2.0969-1.3132-2.8569-4.8779-2.8569h-2.2575v5.8208h1.5745c0.86596 0 2.1669-0.12705 2.8909-0.28233zm1.0057-8.0782c0.77696-0.57795 1.0454-1.5232 0.75788-2.6688-0.24781-0.98736-1.9838-1.6578-4.3108-1.6649l-1.9182-6e-3v5.0797l2.3623-0.0925c1.8902-0.074 2.5115-0.20345 3.1089-0.64781zm19.4 4.1272v-6.0854h2.1167v12.171h-2.1167zm-39.099-8.614c-0.99118-0.69425-0.52982-2.4985 0.63888-2.4985 1.2954 0 1.9271 1.5707 1.0031 2.4946-0.38283 0.31267-0.89942 0.52403-1.642 4e-3zm39.423 0c-0.99118-0.69425-0.52982-2.4985 0.63888-2.4985 1.2954 0 1.9597 1.6046 1.0031 2.4946 0 0-0.64216 0.59419-1.642 4e-3z" stroke="url(#i)" stroke-width=".265"/>
<g transform="matrix(1.1703 0 0 1.1703 -14.067 -49.711)">
<path d="m88.385 294.67 7.5771-7.811-4.116-4.116-7.7642 7.7642z" fill="url(#h)" fill-rule="evenodd"/>
<path d="m85.639 292.89-2.5017-2.5281 4.1906-4.2064c2.3048-2.3135 4.3425-4.2908 4.5213-4.1876 0.76707 0.44286 4.2359 4.3738 4.9464 4.8613 0 0-8.0385 8.3354-8.4775 8.5888-0.08446 0.0487-1.3031-1.1376-2.6791-2.5281zm6.6251-2.2502 3.6341-3.9365-2.0833-2.052-2.0833-2.052-3.8774 3.8774-3.8774 3.8774 2.0793 2.1111c1.1436 1.1611 2.1906 2.1111 2.3266 2.1111 0.13601 0 1.8826-1.7714 3.8814-3.9365zm-3.8942-0.82274 2.3074-0.51728 0.51727-2.3073 0.55477-3.6198-0.2721 3.8378c-0.12902 1.389-0.26368 2.5545-0.2992 2.59-0.03548 0.0355-1.201 0.17018-2.59 0.2992l-4.1378 0.2346z" fill="#181787" stroke-width=".4209"/>
<path d="m85.064 290 5.6127-0.65481 1.1225-5.0514z" fill="url(#g)" fill-rule="evenodd"/>
</g>
<g transform="matrix(-.97473 .012795 .0067994 .97148 97.844 164.88)" fill-rule="evenodd">
<path d="m88.297 128.77 2.4789-0.42095s-0.06515-1.4988 0-5.3788c0.88462-5.8798 6.3364-3.8035 6.5949-0.23386 0.31728 3.4239 0.04677 5.4256 0.04677 5.4256l2.2918 0.5145s0.71476-4.7295 0.37417-6.782c-0.62427-5.4249-6.2715-8.6194-9.6818-4.7708-3.2039 3.4323-2.2882 7.0895-2.1047 11.646z" fill="url(#c)" stroke="#000" stroke-width=".26458px"/>
<path d="m88.32 128.9 0.69453 4.5144c0.03466 0.22532 1.9958 0.051 1.9844-0.19844l-0.21497-4.6964z" fill="url(#b)" stroke="#000" stroke-width=".26458px"/>
<path d="m99.689 128.78s-0.55385 4.3094-0.62838 4.5971c-0.07453 0.2877-2.0101 0.27371-1.9844-0.19844l0.31419-4.8452z" fill="url(#a)" stroke="#000" stroke-width=".26458px"/>
<path d="m94.176 116.32c4.9066-0.11942 5.8088 6.9259 5.8088 6.9259s-0.57027-7.3283-5.887-7.2874c-5.3167 0.0409-5.7547 6.6259-5.7547 6.6259l0.01937 4e-3s0.90686-6.1487 5.8135-6.2682z" fill="url(#k)"/>
</g>
<g transform="matrix(.97473 -.012795 .0067994 .97148 -78.109 167.32)" fill-rule="evenodd">
<path d="m88.297 128.77 2.4789-0.42095s-0.06515-1.4988 0-5.3788c0.88462-5.8798 6.3364-3.8035 6.5949-0.23386 0.31728 3.4239 0.04677 5.4256 0.04677 5.4256l2.2918 0.5145s0.71476-4.7295 0.37417-6.782c-0.62427-5.4249-6.2715-8.6194-9.6818-4.7708-3.2039 3.4323-2.2882 7.0895-2.1047 11.646z" fill="url(#c)" stroke="#000" stroke-width=".26458px"/>
<path d="m88.32 128.9 0.69453 4.5144c0.03466 0.22532 1.9958 0.051 1.9844-0.19844l-0.21497-4.6964z" fill="url(#b)" stroke="#000" stroke-width=".26458px"/>
<path d="m99.689 128.78s-0.55385 4.3094-0.62838 4.5971c-0.07453 0.2877-2.0101 0.27371-1.9844-0.19844l0.31419-4.8452z" fill="url(#a)" stroke="#000" stroke-width=".26458px"/>
<path d="m94.176 116.32c4.9066-0.11942 5.8088 6.9259 5.8088 6.9259s-0.57027-7.3283-5.887-7.2874c-5.3167 0.0409-5.7547 6.6259-5.7547 6.6259l0.01937 4e-3s0.90686-6.1487 5.8135-6.2682z" fill="url(#j)"/>
</g>
</g>
</svg>
