<?xml version="1.0" encoding="UTF-8"?>
<svg width="98mm" height="20mm" version="1.1" viewBox="0 0 98 20" xmlns="http://www.w3.org/2000/svg" xmlns:cc="http://creativecommons.org/ns#" xmlns:dc="http://purl.org/dc/elements/1.1/" xmlns:rdf="http://www.w3.org/1999/02/22-rdf-syntax-ns#" xmlns:xlink="http://www.w3.org/1999/xlink">
<defs>
<linearGradient id="j">
<stop stop-color="#f0fff0" offset="0"/>
<stop stop-color="#f0fff0" stop-opacity="0" offset="1"/>
</linearGradient>
<linearGradient id="e">
<stop stop-color="#708090" offset="0"/>
<stop stop-color="#f0fff0" offset="1"/>
</linearGradient>
<linearGradient id="f">
<stop stop-color="#8b0000" offset="0"/>
<stop stop-color="#f00" offset="1"/>
</linearGradient>
<linearGradient id="g" x1="91.861" x2="88.961" y1="153.92" y2="150.28" gradientTransform="translate(-.52917 137.05)" gradientUnits="userSpaceOnUse">
<stop stop-color="#00008b" offset="0"/>
<stop stop-color="#00008b" stop-opacity="0" offset="1"/>
</linearGradient>
<linearGradient id="d" x1="94.077" x2="93.947" y1="124.92" y2="117.44" gradientUnits="userSpaceOnUse" xlink:href="#f"/>
<linearGradient id="c" x1="90.274" x2="89.868" y1="133.48" y2="129.69" gradientUnits="userSpaceOnUse" xlink:href="#e"/>
<linearGradient id="b" x1="98.113" x2="98.48" y1="133.42" y2="129.68" gradientUnits="userSpaceOnUse" xlink:href="#e"/>
<linearGradient id="a" x1="66.126" x2="65.093" y1="124.21" y2="115.51" gradientTransform="translate(28.812 -.18709)" gradientUnits="userSpaceOnUse" xlink:href="#j"/>
<linearGradient id="i" x1="22.355" x2="87.839" y1="150.43" y2="150.43" gradientTransform="translate(-.52917 137.05)" gradientUnits="userSpaceOnUse">
<stop offset="0"/>
<stop stop-opacity="0" offset="1"/>
</linearGradient>
<linearGradient id="h" x1="95.885" x2="87.769" y1="158.21" y2="149.38" gradientTransform="translate(-.43562 137.24)" gradientUnits="userSpaceOnUse">
<stop stop-color="#00008b" offset="0"/>
<stop stop-color="#fffafa" offset="1"/>
</linearGradient>
</defs>
<metadata>
<rdf:RDF>
<cc:Work rdf:about="">
<dc:format>image/svg+xml</dc:format>
<dc:type rdf:resource="http://purl.org/dc/dcmitype/StillImage"/>
<dc:title/>
</cc:Work>
</rdf:RDF>
</metadata>
<g transform="translate(0,-277)">
<path d="m88.385 294.67 7.5771-7.811-4.116-4.116-7.7642 7.7642z" fill="url(#h)" fill-rule="evenodd"/>
<path d="m85.639 292.89-2.5017-2.5281 4.1906-4.2064c2.3048-2.3135 4.3425-4.2908 4.5213-4.1876 0.76707 0.44286 4.2359 4.3738 4.9464 4.8613 0 0-8.0385 8.3354-8.4775 8.5888-0.08446 0.0487-1.3031-1.1376-2.6791-2.5281zm6.6251-2.2502 3.6341-3.9365-2.0833-2.052-2.0833-2.052-3.8774 3.8774-3.8774 3.8774 2.0793 2.1111c1.1436 1.1611 2.1906 2.1111 2.3266 2.1111 0.13601 0 1.8826-1.7714 3.8814-3.9365zm-3.8942-0.82274 2.3074-0.51728 0.51727-2.3073 0.55477-3.6198-0.2721 3.8378c-0.12902 1.389-0.26368 2.5545-0.2992 2.59-0.03548 0.0355-1.201 0.17018-2.59 0.2992l-4.1378 0.2346z" fill="#181787" stroke-width=".4209"/>
<path d="m24.444 296.35c-0.44203-0.13877-1.1464-0.61001-1.5652-1.0472-1.0218-1.0665-1.2285-3.1698-0.43562-4.4318 0.84685-1.3479 1.947-1.7908 4.4582-1.7951l2.1828-4e-3 -0.0084-0.92604c-0.01691-1.8614-1.1421-2.5178-3.8892-2.2689l-1.9586 0.17749 0.08385-0.86221c0.07482-0.76932 0.19786-0.88689 1.1422-1.0914 1.4788-0.3203 4.2347-0.0704 5.0396 0.45704 0.37079 0.24295 0.90615 0.82221 1.1897 1.2872 0.4596 0.75376 0.51565 1.3535 0.51654 5.5263 5.56e-4 2.5744-0.10749 4.7478-0.24008 4.8297-0.45478 0.28107-5.7118 0.40093-6.5157 0.14855zm4.6401-3.5736v-1.9844h-1.8641c-1.6264 0-1.9469 0.0828-2.5135 0.64943-0.6976 0.69761-0.81835 1.451-0.36755 2.2933 0.39344 0.73516 1.1735 0.9898 3.0916 1.0092l1.6536 0.0168zm11.774 2.2071-0.07683-8.1459-0.07683-8.1459 0.83751-0.16751c0.46063-0.0921 0.93991-0.1675 1.0651-0.1675 0.12517 0 0.25911 3.5376 0.29766 7.8613l0.07008 7.8613c0.38699 0.64376 1.0993 0.56802 1.6555 0.8377 0.03739 0.0131-0.42815 1.1484-0.52017 1.6082-2.2839 0.20666-3.252-1.5417-3.252-1.5417zm23.009 1.3666c-0.44203-0.13877-1.1464-0.61001-1.5652-1.0472-1.0218-1.0665-1.2285-3.1698-0.43562-4.4318 0.84685-1.3479 1.947-1.7908 4.4582-1.7951l2.1828-4e-3 -8e-3 -0.92604c-0.0169-1.8614-1.1421-2.5178-3.8892-2.2689l-1.9586 0.17749 0.08385-0.86221c0.07482-0.76932 0.19786-0.88689 1.1422-1.0914 1.4788-0.3203 4.2347-0.0704 5.0396 0.45704 0.37079 0.24295 0.90616 0.82221 1.1897 1.2872 0.4596 0.75376 0.51565 1.3535 0.51653 5.5263 5.3e-4 2.5744-0.10749 4.7478-0.24007 4.8297-0.45479 0.28107-5.7118 0.40093-6.5158 0.14855zm4.6401-3.5736v-1.9844h-1.8641c-1.6264 0-1.9469 0.0828-2.5136 0.64943-0.6976 0.69761-0.81835 1.451-0.36755 2.2933 0.39344 0.73516 1.1735 0.9898 3.0916 1.0092l1.6536 0.0168zm13.761-1.8163c1.58e-4 0.0293 3.27e-4 0.0582 5.07e-4 0.0868 0.01475 2.3408 0.1055 2.5232 0.64666 3.0644 0.69673 0.69673 1.722 0.8323 2.9176 0.38658 0.01023-4e-3 0.02048-8e-3 0.03073-0.0116 1.1135 1.1209 0.15737 0.155 1.3014 1.3078-0.01314 0.055-0.03729 0.1029-0.07487 0.14644-0.118 0.13669-0.36832 0.23049-0.82519 0.36737-1.4657 0.43913-3.1962 0.3748-4.2637-0.15849-1.7213-0.85988-1.8512-1.4794-1.8517-8.8301l-4.1e-4 -6.5154 0.82682-0.16537c0.45476-0.0909 0.93101-0.16536 1.0583-0.16536s0.23151 0.83344 0.23151 1.8521v1.8521h2.249l2.3492-0.0167c-1.0947 1.0636-0.88993 0.86684-1.8918 1.8688h-2.7064v2.6486l-0.99219 1.142c0.12221 0.19947 0.90572 1.0173 0.99445 1.14m-47.363-0.6972v-6.0854h2.1167v12.171h-2.1167zm13.163 5.9111-0.7276-0.12538v-15.807l1.1985-0.17972c0.65915-0.0988 2.2963-0.12859 3.638-0.0661 4.3408 0.20216 6.1479 1.5493 5.9346 4.4242-0.09211 1.2419-0.23314 1.5489-1.0592 2.306l-0.95294 0.87331 1.0349 0.58164c1.8204 1.0231 2.385 3.4319 1.3019 5.5549-0.43013 0.84313-0.86506 1.2167-2.0505 1.7613-1.3103 0.60198-1.8975 0.69842-4.5473 0.74696-1.6735 0.0307-3.3701-6.9e-4 -3.7703-0.0696zm5.8545-1.9601c1.846-0.3959 2.6806-1.2342 2.6699-2.6816-0.01552-2.0969-1.3132-2.8569-4.8779-2.8569h-2.2575v5.8208h1.5745c0.86596 0 2.1669-0.12705 2.8909-0.28233zm1.0057-8.0782c0.77696-0.57795 1.0454-1.5232 0.75788-2.6688-0.24781-0.98736-1.9838-1.6578-4.3108-1.6649l-1.9182-6e-3v5.0797l2.3623-0.0925c1.8902-0.074 2.5115-0.20345 3.1089-0.64781zm19.4 4.1272v-6.0854h2.1167v12.171h-2.1167zm-39.099-8.614c-0.99118-0.69425-0.52982-2.4985 0.63888-2.4985 1.2954 0 1.9271 1.5707 1.0031 2.4946-0.38283 0.31267-0.89942 0.52403-1.642 4e-3zm39.423 0c-0.99118-0.69425-0.52982-2.4985 0.63888-2.4985 1.2954 0 1.9597 1.6046 1.0031 2.4946 0 0-0.64216 0.59419-1.642 4e-3z" stroke="url(#i)" stroke-width=".265"/>
<path d="m85.064 290 5.6127-0.65481 1.1225-5.0514z" fill="url(#g)" fill-rule="evenodd"/>
<g transform="matrix(-1 0 0 1 100.74 162.97)" fill-rule="evenodd">
<path d="m88.297 128.77 2.4789-0.42095s-0.06515-1.4988 0-5.3788c0.88462-5.8798 6.3364-3.8035 6.5949-0.23386 0.31728 3.4239 0.04677 5.4256 0.04677 5.4256l2.2918 0.5145s0.71476-4.7295 0.37417-6.782c-0.62427-5.4249-6.2715-8.6194-9.6818-4.7708-3.2039 3.4323-2.2882 7.0895-2.1047 11.646z" fill="url(#d)" stroke="#000" stroke-width=".26458px"/>
<path d="m88.32 128.9 0.69453 4.5144c0.03466 0.22532 1.9958 0.051 1.9844-0.19844l-0.21497-4.6964z" fill="url(#c)" stroke="#000" stroke-width=".26458px"/>
<path d="m99.689 128.78s-0.55385 4.3094-0.62838 4.5971c-0.07453 0.2877-2.0101 0.27371-1.9844-0.19844l0.31419-4.8452z" fill="url(#b)" stroke="#000" stroke-width=".26458px"/>
<path d="m94.176 116.32c4.9066-0.11942 5.8088 6.9259 5.8088 6.9259s-0.57027-7.3283-5.887-7.2874c-5.3167 0.0409-5.7547 6.6259-5.7547 6.6259l0.01937 4e-3s0.90686-6.1487 5.8135-6.2682z" fill="url(#a)"/>
</g>
<g transform="translate(-79.048 162.97)" fill-rule="evenodd">
<path d="m88.297 128.77 2.4789-0.42095s-0.06515-1.4988 0-5.3788c0.88462-5.8798 6.3364-3.8035 6.5949-0.23386 0.31728 3.4239 0.04677 5.4256 0.04677 5.4256l2.2918 0.5145s0.71476-4.7295 0.37417-6.782c-0.62427-5.4249-6.2715-8.6194-9.6818-4.7708-3.2039 3.4323-2.2882 7.0895-2.1047 11.646z" fill="url(#d)" stroke="#000" stroke-width=".26458px"/>
<path d="m88.32 128.9 0.69453 4.5144c0.03466 0.22532 1.9958 0.051 1.9844-0.19844l-0.21497-4.6964z" fill="url(#c)" stroke="#000" stroke-width=".26458px"/>
<path d="m99.689 128.78s-0.55385 4.3094-0.62838 4.5971c-0.07453 0.2877-2.0101 0.27371-1.9844-0.19844l0.31419-4.8452z" fill="url(#b)" stroke="#000" stroke-width=".26458px"/>
<path d="m94.176 116.32c4.9066-0.11942 5.8088 6.9259 5.8088 6.9259s-0.57027-7.3283-5.887-7.2874c-5.3167 0.0409-5.7547 6.6259-5.7547 6.6259l0.01937 4e-3s0.90686-6.1487 5.8135-6.2682z" fill="url(#a)"/>
</g>
<path d="m42.7 278.24c-0.0658 0-0.21489 0.0184-0.4082 0.0488s-0.42962 0.073-0.66016 0.11914l-0.84961 0.16993 0.0762 8.1602 0.0781 8.1484 2e-3 4e-3s0.97321 1.7582 3.2656 1.5508l0.0137-2e-3 2e-3 -0.0117c0.0455-0.2273 0.18347-0.62591 0.30665-0.96876 0.0616-0.17142 0.12024-0.32959 0.16015-0.44531 0.02-0.0579 0.0354-0.10484 0.0449-0.13867 5e-3 -0.0169 8e-3 -0.0306 0.01-0.041 7.9e-4 -5e-3 4.1e-4 -9e-3 0-0.0137-1e-4 -1e-3 1.1e-4 -3e-3 0-4e-3 -1.1e-4 -5.1e-4 -2e-3 -4e-3 -2e-3 -4e-3 -1.7e-4 -3.7e-4 -4e-3 -6e-3 -4e-3 -6e-3 -1.8e-4 -1.8e-4 -2e-3 -3e-3 -4e-3 -4e-3h-2e-3c-0.28063-0.13565-0.59886-0.18478-0.89257-0.2793-0.29295-0.0943-0.56099-0.23595-0.75196-0.55078l-0.0703-7.8555c-0.0193-2.162-0.0632-4.1276-0.11718-5.5527-0.027-0.71255-0.0571-1.2899-0.0879-1.6895-0.0154-0.1998-0.031-0.35502-0.0469-0.46094-8e-3 -0.053-0.0152-0.0928-0.0234-0.12109-4e-3 -0.0142-9e-3 -0.0244-0.0137-0.0332-2e-3 -4e-3 -4e-3 -8e-3 -8e-3 -0.0117-2e-3 -2e-3 -7e-3 -5e-3 -8e-3 -6e-3 -9.8e-4 -4.3e-4 -9e-3 -2e-3 -0.01-2e-3zm-2e-3 0.0332c4.3e-4 5.9e-4 -5.6e-4 9.8e-4 0 2e-3 3e-3 5e-3 6e-3 0.0145 0.01 0.0273 8e-3 0.0256 0.0156 0.065 0.0234 0.11719 0.0156 0.10444 0.0315 0.25958 0.0469 0.45899 0.0307 0.39881 0.0609 0.97518 0.0879 1.6875 0.0539 1.4246 0.096 3.389 0.11524 5.5508l0.0703 7.8672 2e-3 4e-3c0.19587 0.32583 0.4758 0.46867 0.77344 0.56446 0.29565 0.0951 0.60893 0.14592 0.8828 0.27734-1e-3 8e-3 -5e-3 0.0208-0.01 0.0371-9e-3 0.0326-0.0251 0.0791-0.0449 0.13672-0.0397 0.11521-0.0966 0.27183-0.1582 0.44336-0.12154 0.33827-0.25628 0.72715-0.30469 0.96093-2.2645 0.19878-3.2223-1.527-3.2246-1.5312l-0.0762-8.1387-0.0781-8.1328 0.82422-0.16602c0.23009-0.046 0.46542-0.0869 0.6582-0.11719 0.19187-0.0302 0.34238-0.0487 0.40234-0.0488zm-6.7383 0.76173c-1.1802 0-1.6417 1.8062-0.6543 2.5156v6e-3l8e-3 6e-3c0.37357 0.2616 0.69275 0.33984 0.9668 0.3125 0.27406-0.0273 0.50059-0.16091 0.69336-0.31836h2e-3c0.46646-0.46645 0.54051-1.0977 0.33399-1.6113-0.20653-0.5136-0.69542-0.91015-1.3496-0.91015zm39.424 0c-1.1818 0-1.6467 1.8121-0.6543 2.5195v4e-3l4e-3 2e-3h2e-3c4.7e-4 3.3e-4 -4.7e-4 2e-3 0 2e-3h2e-3c0.50325 0.29705 0.91791 0.29642 1.207 0.2207 0.28913-0.0757 0.45313-0.22656 0.45313-0.22656 0.48317-0.44954 0.55828-1.0818 0.34766-1.5996-0.21063-0.51782-0.707-0.92188-1.3613-0.92188zm-39.424 0.0312c0.64126 0 1.1182 0.38788 1.3203 0.89062 0.20217 0.50274 0.12934 1.1187-0.32812 1.5762-0.18975 0.15473-0.41082 0.28411-0.67578 0.31055-0.2656 0.0265-0.57628-0.0502-0.94531-0.30859-0.97861-0.68544-0.52333-2.4688 0.6289-2.4688zm39.424 0c0.64112 0 1.1258 0.39729 1.332 0.90429s0.1336 1.122-0.33985 1.5625c0 0-0.15753 0.14492-0.43945 0.21875-0.28147 0.0737-0.68611 0.0749-1.1816-0.21679-0.9786-0.68544-0.52332-2.4688 0.62891-2.4688zm-23.113 0.8125c-1.3426-0.0625-2.9781-0.0329-3.6406 0.0664l-1.2129 0.18164v15.836l0.72851 0.125 0.0137 2e-3c0.20342 0.035 0.72655 0.0596 1.4102 0.0723 0.68361 0.0126 1.5263 0.0134 2.3633-2e-3 2.6502-0.0486 3.2414-0.14558 4.5527-0.74805 1.1866-0.54515 1.6273-0.92422 2.0586-1.7695 1.0863-2.1294 0.51994-4.5485-1.3086-5.5762l-1.0156-0.57031 0.9375-0.85938c0.41349-0.37893 0.65722-0.64701 0.80859-0.97656 0.15138-0.32956 0.20977-0.7184 0.25586-1.3398 0.10688-1.4409-0.29555-2.5039-1.2676-3.2285-0.97203-0.72463-2.5117-1.1117-4.6836-1.2129zm0 0.0332c2.1688 0.101 3.7026 0.48687 4.666 1.2051 0.96341 0.71821 1.3583 1.7672 1.252 3.2012-0.046 0.62044-0.10327 1.0064-0.25195 1.3301-0.14868 0.3237-0.38821 0.58675-0.80078 0.96485l-0.9707 0.88867 1.0547 0.5918c1.8123 1.0186 2.3748 3.4185 1.2949 5.5352-0.42901 0.84094-0.85867 1.2098-2.043 1.7539-1.3093 0.6015-1.8915 0.69561-4.541 0.74414-0.83655 0.0153-1.6782 0.0165-2.3613 4e-3 -0.68313-0.0126-1.2075-0.0384-1.4043-0.0723l-0.71485-0.12304v-15.781l1.1836-0.17773c0.65577-0.0983 2.2958-0.12691 3.6367-0.0645zm29.857 0.44531c-0.0668 0-0.21807 0.0188-0.41016 0.0488s-0.42473 0.0717-0.65234 0.11718l-0.83985 0.16797 2e-3 6.5274c2.3e-4 3.6754 0.0309 5.669 0.27929 6.8535 0.1242 0.59223 0.30417 0.98296 0.56055 1.2793 0.25639 0.29634 0.5886 0.49762 1.0195 0.71289 1.0733 0.53615 2.806 0.59845 4.2754 0.15821 0.45725-0.137 0.7091-0.22867 0.83203-0.3711 0.0392-0.0454 0.0663-0.097 0.0801-0.15429l2e-3 -8e-3 -8e-3 -6e-3c-1.1441-1.1528-0.18724-0.18767-1.3008-1.3086l-8e-3 -8e-3 -8e-3 4e-3c-0.0105 4e-3 -0.021 8e-3 -0.0312 0.0117-1.1918 0.44431-2.2085 0.3091-2.9004-0.38281-0.27026-0.27028-0.42605-0.44661-0.51758-0.84961-0.0915-0.403-0.11765-1.0329-0.125-2.2031-2.7e-4 -0.0285 1.6e-4 -0.0586 0-0.0879h-0.0156l0.0117-8e-3c-0.0238-0.0329-0.0898-0.10602-0.17773-0.20312-0.0879-0.0971-0.19751-0.21752-0.3086-0.33985-0.11108-0.12232-0.22259-0.24707-0.31445-0.35351-0.0882-0.10217-0.15433-0.1856-0.18555-0.23438l0.98633-1.1367v-2.6387h2.6973l6e-3 -4e-3c1.0019-1.002 0.79598-0.80551 1.8906-1.8691l0.0293-0.0273-2.3887 0.0156h-2.2344v-1.8353c0-0.50986-0.0263-0.97191-0.0684-1.3086-0.021-0.16834-0.0442-0.30483-0.0723-0.40039-0.0141-0.0478-0.0306-0.0864-0.0469-0.11328-0.0163-0.0268-0.034-0.0449-0.0586-0.0449zm0 0.0312c7e-3 0 0.0175 8e-3 0.0312 0.0312 0.0138 0.0227 0.0294 0.0572 0.043 0.10351 0.0272 0.0925 0.0513 0.22914 0.0723 0.39649 0.0418 0.3347 0.0684 0.79591 0.0684 1.3047v1.8691h2.2656l2.3105-0.0176c-1.0398 1.0104-0.88108 0.85751-1.8613 1.8379h-2.7149v2.6582l-0.99609 1.1465 6e-3 0.01c0.032 0.0522 0.10507 0.13925 0.19726 0.24609 0.0922 0.10684 0.2033 0.23306 0.31446 0.35547 0.11116 0.1224 0.22081 0.24287 0.30859 0.33984 0.086 0.095 0.14988 0.16558 0.17188 0.19532 1.4e-4 0.0273-2.6e-4 0.0553 0 0.082 7e-3 1.1706 0.0341 1.8022 0.12695 2.2109 0.0928 0.40871 0.25449 0.59432 0.52539 0.86524 0.70154 0.70154 1.7342 0.83581 2.9336 0.38867h2e-3c7e-3 -3e-3 0.0129-3e-3 0.0195-6e-3 1.0759 1.083 0.18146 0.177 1.2871 1.291-0.013 0.0491-0.0343 0.0934-0.0684 0.13281-0.11304 0.13096-0.36189 0.22652-0.81836 0.36328-1.4619 0.43801-3.1901 0.37223-4.252-0.1582-0.4297-0.21467-0.75766-0.4137-1.0098-0.70508s-0.42923-0.67665-0.55274-1.2656c-0.24701-1.1779-0.27906-3.1705-0.27929-6.8457v-6.502l0.8125-0.16211c0.22715-0.0454 0.46078-0.0872 0.65234-0.11718 0.19156-0.0299 0.34375-0.0488 0.4043-0.0488zm-32.594 1.291v5.1133l2.3789-0.0937c0.94541-0.037 1.575-0.088 2.043-0.18554 0.4568-0.0952 0.75535-0.23878 1.0488-0.45313v8e-3l0.0254-0.0195c0.78225-0.58188 1.0542-1.5357 0.76562-2.6856-0.12584-0.5014-0.62831-0.91803-1.3867-1.2109-0.7584-0.29291-1.7744-0.46327-2.9394-0.4668zm0.0332 0.0332 1.9004 6e-3c1.162 4e-3 2.1764 0.17196 2.9297 0.46289 0.7533 0.29094 1.2452 0.7035 1.3672 1.1895 0.28644 1.1413 0.0197 2.0783-0.75195 2.6523-0.29715 0.22104-0.59991 0.36219-1.0644 0.45898-0.46455 0.0968-1.0903 0.14856-2.0352 0.18555l-2.3457 0.0918v-2.5234zm-22.246 2.1816c-0.97567-0.0885-2.0351-0.0709-2.7774 0.0898-0.47264 0.10237-0.74169 0.18252-0.90429 0.33789-0.1626 0.15538-0.21252 0.38216-0.25 0.76758l-0.0859 0.88282 1.9785-0.17969c1.3721-0.12434 2.3373-0.0209 2.959 0.34179 0.62171 0.3627 0.90368 0.98461 0.91211 1.9121l8e-3 0.90821-2.166 4e-3c-1.2565 2e-3 -2.1615 0.11549-2.8594 0.39649s-1.1886 0.73035-1.6133 1.4062c-0.3989 0.63491-0.54542 1.4809-0.46484 2.3008 0.0806 0.81984 0.3882 1.6137 0.90234 2.1504 0.42109 0.43951 1.125 0.91232 1.5723 1.0527l0.0195 6e-3v-4e-3c0.21101 0.063 0.6751 0.10152 1.2793 0.12109 0.61342 0.0199 1.3596 0.0187 2.0957 2e-3 0.73605-0.0168 1.4614-0.0489 2.0312-0.0957 0.28493-0.0234 0.53121-0.0503 0.7207-0.0801s0.32032-0.061 0.38282-0.0996c0.0148-9e-3 0.0227-0.0265 0.0312-0.0488 9e-3 -0.0223 0.0175-0.0513 0.0254-0.0879 0.0159-0.0733 0.0305-0.17469 0.0449-0.30274 0.0288-0.2561 0.0544-0.6168 0.0762-1.0547 0.0435-0.87577 0.0706-2.0622 0.0703-3.3496-4.4e-4 -2.0865-0.0142-3.2798-0.0859-4.0469s-0.20297-1.11-0.4336-1.4883c-0.28513-0.46764-0.81872-1.0456-1.1934-1.291-0.40849-0.26767-1.2997-0.4623-2.2754-0.55078zm39.424 2e-3c-0.97567-0.0885-2.0351-0.0729-2.7773 0.0879-0.47265 0.10237-0.7417 0.18252-0.9043 0.33789-0.1626 0.15538-0.21252 0.38216-0.25 0.76758l-0.0859 0.88282 1.9766-0.17969c1.3721-0.12434 2.3373-0.0209 2.959 0.34179 0.62172 0.3627 0.90565 0.98461 0.91407 1.9121l8e-3 0.90821-2.168 4e-3c-1.2565 2e-3 -2.1615 0.11549-2.8594 0.39649s-1.1867 0.73035-1.6113 1.4062c-0.39891 0.63491-0.54543 1.4809-0.46484 2.3008 0.0806 0.81984 0.3882 1.6137 0.90234 2.1504 0.42108 0.43951 1.125 0.91232 1.5723 1.0527l8e-3 2e-3 2e-3 -2e-3c0.20856 0.0638 0.67827 0.10331 1.2871 0.12304 0.61342 0.0199 1.3616 0.0187 2.0976 2e-3 0.73605-0.0168 1.4614-0.0489 2.0312-0.0957 0.28493-0.0234 0.52926-0.0503 0.71875-0.0801s0.32227-0.061 0.38477-0.0996c0.0148-9e-3 0.0227-0.0246 0.0312-0.0469 9e-3 -0.0223 0.0155-0.0532 0.0234-0.0898 0.0158-0.0733 0.0325-0.17469 0.0469-0.30274 0.0288-0.2561 0.0544-0.6168 0.0762-1.0547 0.0435-0.87577 0.0706-2.0622 0.0703-3.3496-4.4e-4 -2.0865-0.0162-3.2798-0.0879-4.0469-0.0717-0.76709-0.20101-1.11-0.43164-1.4883-0.28514-0.46764-0.82068-1.0456-1.1953-1.291-0.40849-0.26767-1.2978-0.46035-2.2734-0.54883zm-39.426 0.0312c0.97322 0.0883 1.8633 0.28321 2.2598 0.54297 0.36694 0.24043 0.90163 0.82077 1.1836 1.2832 0.22897 0.37552 0.35629 0.7102 0.42774 1.4746 0.0714 0.7644 0.0855 1.9566 0.0859 4.043 2.8e-4 1.287-0.0249 2.4727-0.0684 3.3477-0.0217 0.4375-0.0475 0.79783-0.0762 1.0527-0.0143 0.12745-0.0295 0.22943-0.0449 0.30078-8e-3 0.0357-0.0159 0.0642-0.0234 0.084-8e-3 0.0198-0.0178 0.0302-0.0195 0.0312-0.0512 0.0316-0.1829 0.0661-0.3711 0.0957-0.18819 0.0296-0.43431 0.0547-0.71875 0.0781-0.56888 0.0468-1.2918 0.0809-2.0273 0.0977s-1.4831 0.0159-2.0957-4e-3c-0.61259-0.0199-1.0932-0.0596-1.2891-0.12109-0.43678-0.13713-1.142-0.60811-1.5586-1.043-0.50762-0.52984-0.81257-1.3189-0.89258-2.1328-0.08-0.81393 0.065-1.6522 0.45899-2.2793 0.42218-0.67196 0.90594-1.116 1.5976-1.3945 0.69171-0.27852 1.593-0.39046 2.8477-0.39258l2.1992-4e-3 -0.01-0.94336c-8e-3 -0.93392-0.29587-1.5708-0.92774-1.9394s-1.6035-0.46835-2.9785-0.34375l-1.9395 0.17578 0.082-0.84375c0.0373-0.3839 0.0865-0.60117 0.24024-0.74805 0.1537-0.14687 0.41894-0.22791 0.89062-0.33007 0.73657-0.15954 1.7944-0.17615 2.7676-0.0879zm39.422 0c0.97321 0.0883 1.8633 0.28321 2.2598 0.54297 0.36695 0.24043 0.90359 0.82077 1.1856 1.2832 0.22897 0.37551 0.35629 0.7102 0.42774 1.4746 0.0714 0.76441 0.0855 1.9566 0.0859 4.043 2.7e-4 1.287-0.0268 2.4746-0.0703 3.3496-0.0217 0.4375-0.0475 0.79588-0.0762 1.0508-0.0143 0.12745-0.0295 0.22943-0.0449 0.30078-8e-3 0.0357-0.0159 0.0642-0.0234 0.084-8e-3 0.0198-0.0158 0.0302-0.0176 0.0312-0.0512 0.0316-0.1829 0.0661-0.37109 0.0957-0.1882 0.0296-0.43431 0.0547-0.71875 0.0781-0.56888 0.0468-1.2937 0.0809-2.0293 0.0977-0.73555 0.0168-1.4812 0.0179-2.0938-2e-3s-1.0932-0.0616-1.2891-0.12304c-0.43678-0.13713-1.142-0.60811-1.5586-1.043-0.50762-0.52984-0.81453-1.3189-0.89453-2.1328-0.08-0.81393 0.067-1.6522 0.46094-2.2793 0.42218-0.67196 0.90594-1.116 1.5976-1.3945 0.69171-0.27852 1.591-0.39046 2.8457-0.39258l2.1992-4e-3 -8e-3 -0.94336c-8e-3 -0.93392-0.29587-1.5708-0.92774-1.9394s-1.6035-0.46835-2.9785-0.34375l-1.9394 0.17578 0.082-0.84375c0.0373-0.3839 0.0865-0.60117 0.24023-0.74805 0.15371-0.14687 0.41699-0.22791 0.88867-0.33007 0.73657-0.15954 1.7944-0.17615 2.7676-0.0879zm-31.76 0.13282v12.203h2.1504v-12.203h-1.0742zm39.424 0v12.203h2.1484v-12.203h-1.0742zm-39.391 0.0332h2.084v12.139h-2.084v-6.0703zm39.422 0h2.0859v12.139h-2.0859v-6.0703zm-24.902 4.4648v5.8535h1.5898c0.86752 0 2.1684-0.12747 2.8945-0.2832 0.92479-0.19833 1.5979-0.50806 2.0391-0.95117 0.44119-0.44312 0.64991-1.0193 0.64453-1.7461-8e-3 -1.0517-0.34061-1.7737-1.1172-2.2285-0.77657-0.45483-1.9938-0.64454-3.7773-0.64454zm0.0332 0.0332h2.2402c1.7812 0 2.9944 0.18927 3.7617 0.63867 0.7673 0.4494 1.0919 1.156 1.0996 2.2012 5e-3 0.72062-0.19787 1.2878-0.63282 1.7246s-1.1022 0.74384-2.0234 0.94141c-0.72196 0.15483-2.0243 0.2832-2.8887 0.2832h-1.5566v-2.8945zm-22.254 2.084c-0.81347 0-1.3011 0.021-1.6582 0.11328-0.35713 0.0923-0.58309 0.25691-0.86719 0.54102-0.35051 0.35051-0.55747 0.71678-0.61914 1.1016-0.0617 0.38478 0.0234 0.78751 0.25 1.2109 0.19843 0.37078 0.4956 0.62232 0.98242 0.78125 0.48682 0.15892 1.1633 0.22659 2.123 0.23633l1.6699 0.0176v-4.002zm39.424 0c-0.81347 0-1.3011 0.021-1.6582 0.11328-0.35713 0.0923-0.58309 0.25691-0.86719 0.54102-0.35051 0.35051-0.55747 0.71678-0.61914 1.1016-0.0617 0.38478 0.0214 0.78751 0.24805 1.2109 0.19843 0.37078 0.49756 0.62232 0.98437 0.78125 0.48682 0.15892 1.1614 0.22659 2.1211 0.23633l1.6699 0.0176v-4.002zm-39.424 0.0312h1.8477v3.9375l-1.6367-0.0156c-0.95837-0.01-1.6322-0.0793-2.1133-0.23633-0.48108-0.15705-0.76984-0.40125-0.96485-0.76563-0.22418-0.41888-0.30454-0.81452-0.24414-1.1914 0.0604-0.37689 0.26229-0.73494 0.60938-1.082 0.28252-0.28253 0.50017-0.44242 0.85156-0.53321 0.35139-0.0908 0.83746-0.11328 1.6504-0.11328zm39.424 2e-3h1.8477v3.9356l-1.6387-0.0156c-0.95837-0.01-1.6303-0.0793-2.1113-0.23633-0.48107-0.15705-0.76984-0.40125-0.96484-0.76563-0.22418-0.41888-0.3065-0.81452-0.2461-1.1914 0.0604-0.37689 0.26229-0.73494 0.60938-1.082 0.28252-0.28253 0.50212-0.44242 0.85351-0.53321 0.35139-0.0908 0.83746-0.11133 1.6504-0.11133z" color="#000000" color-rendering="auto" dominant-baseline="auto" image-rendering="auto" shape-rendering="auto" solid-color="#000000" stroke="#fff" stroke-width=".2" style="font-feature-settings:normal;font-variant-alternates:normal;font-variant-caps:normal;font-variant-ligatures:normal;font-variant-numeric:normal;font-variant-position:normal;isolation:auto;mix-blend-mode:normal;shape-padding:0;text-decoration-color:#000000;text-decoration-line:none;text-decoration-style:solid;text-indent:0;text-orientation:mixed;text-transform:none;white-space:normal"/>
</g>
</svg>
